<svg xmlns="http://www.w3.org/2000/svg" viewBox="0 0 26.02 25.03"><title>facebook</title><g id="Layer_2" data-name="Layer 2"><g id="Layer_1-2" data-name="Layer 1"><rect x="0.01" y="0.01" width="26.01" height="24.98" rx="2.03" ry="2.03" style="fill:#fff"/><path d="M21.49,2.92q0,1.65,0,3.3c0,.15,0,.3,0,.49l-.37,0c-.64,0-1.29,0-1.93,0-.8.05-1.08.36-1.1,1.16s0,1.47,0,2.25h3.41l-.4,3.8h-3c0,.13,0,.22,0,.32q0,5.23,0,10.45c0,.1,0,.19,0,.29H13.92c0-.09,0-.17,0-.26q0-5.24,0-10.49c0-.09,0-.17,0-.29H11.19V10.17h2.74c0-.16,0-.27,0-.39,0-1,0-2,.05-3a4.6,4.6,0,0,1,.63-2.24A3.49,3.49,0,0,1,17.32,3l.31-.07Z"/></g></g></svg>