<svg xmlns="http://www.w3.org/2000/svg" viewBox="0 0 35 28.01"><title>speech</title><g id="Layer_2" data-name="Layer 2"><g id="Layer_1-2" data-name="Layer 1"><path d="M19.5,9.56a6.62,6.62,0,0,1,0,9.36" style="fill:none;stroke:#fff;stroke-linecap:round;stroke-miterlimit:10;stroke-width:2.94303809616246px"/><path d="M23.6,5.84c4.68,4.68,5,12,.62,16.34" style="fill:none;stroke:#fff;stroke-linecap:round;stroke-miterlimit:10;stroke-width:2.94303809616246px"/><path d="M27.85,1.47c7.19,7.19,7.61,18.41,1,25.07" style="fill:none;stroke:#fff;stroke-linecap:round;stroke-miterlimit:10;stroke-width:2.94303809616246px"/><path d="M12.46,4.63,7.12,10a.76.76,0,0,1-.54.22H.76a.76.76,0,0,0-.76.76v7.32A.76.76,0,0,0,.76,19H6.58a.76.76,0,0,1,.54.22l5.34,5.34A.76.76,0,0,0,13.75,24V5.17A.76.76,0,0,0,12.46,4.63Z" style="fill:#fff"/></g></g></svg>