<svg xmlns="http://www.w3.org/2000/svg" viewBox="0 0 30.84 25.19"><title>twitter</title><g id="Layer_2" data-name="Layer 2"><g id="Layer_1-2" data-name="Layer 1"><path d="M6.9,5.31A12.28,12.28,0,0,0,8.21,6a18.53,18.53,0,0,0,2,.82,18.17,18.17,0,0,0,3.2.78c.52.08,1,.13,1.58.17h.09c.09,0,.12,0,.1-.12a5.74,5.74,0,0,1-.11-.7A6.36,6.36,0,0,1,19.31.35,6.08,6.08,0,0,1,21.78,0,6.34,6.34,0,0,1,25.36,1.4a5.57,5.57,0,0,1,.58.52.2.2,0,0,0,.21.06A13.06,13.06,0,0,0,29.38.84L30,.52A.09.09,0,0,1,30,.5a6.39,6.39,0,0,1-2.69,3.42c0,.05.08,0,.12,0a12.83,12.83,0,0,0,3.17-.86c.06,0,.15-.1.19,0s-.05.12-.09.17a12.94,12.94,0,0,1-1.57,1.85,13.12,13.12,0,0,1-1.23,1.05l-.08.06a.2.2,0,0,0-.12.22c0,.13,0,.26,0,.38a4,4,0,0,1,0,.59,18.25,18.25,0,0,1-1.54,7,18.55,18.55,0,0,1-2.7,4.44,16.15,16.15,0,0,1-1.44,1.56,17.07,17.07,0,0,1-1.85,1.54A16.62,16.62,0,0,1,18.49,23a17,17,0,0,1-3.08,1.32,18,18,0,0,1-3.21.71,16.94,16.94,0,0,1-2.16.15,7.3,7.3,0,0,1-.76,0A17.74,17.74,0,0,1,0,22.37a13,13,0,0,0,9.28-2.62v0l-.6-.06a6.37,6.37,0,0,1-5.21-4.17c-.07-.2-.07-.2.14-.17a6.36,6.36,0,0,0,2.47-.1.17.17,0,0,0,.12-.05L5.59,15a6.2,6.2,0,0,1-2.19-1.22,6.32,6.32,0,0,1-1.59-2,6.19,6.19,0,0,1-.63-2.42,2.86,2.86,0,0,1,0-.3c0-.16,0-.16.15-.09a6.24,6.24,0,0,0,2.64.72l0,0A6.35,6.35,0,0,1,1.22,4.58a2.5,2.5,0,0,1,0-.44,6.26,6.26,0,0,1,.72-2.75c.12-.23.12-.23.28,0A16.85,16.85,0,0,0,3.48,2.7,18.22,18.22,0,0,0,6.79,5.25Z" style="fill:#fff"/></g></g></svg>